<svg width="50" height="50" viewBox="0 0 50 50" fill="none" xmlns="http://www.w3.org/2000/svg">
<path d="M45 0H5C2.23858 0 0 2.23858 0 5V45C0 47.7614 2.23858 50 5 50H45C47.7614 50 50 47.7614 50 45V5C50 2.23858 47.7614 0 45 0Z" fill="#777BB3"/>
<path d="M13.8937 27.2392C14.9233 27.2392 15.6919 27.058 16.1783 26.7009C16.6594 26.3474 16.9917 25.735 17.1659 24.8808C17.3283 24.0824 17.2664 23.5248 16.9821 23.224C16.6913 22.9167 16.0627 22.7608 15.1138 22.7608H13.4684L12.5562 27.2392H13.8937ZM8.51196 32.7557C8.43558 32.7557 8.36304 32.7232 8.31448 32.6668C8.26584 32.6106 8.24613 32.5365 8.26072 32.4649L10.6782 20.5971C10.7016 20.4824 10.807 20.3995 10.9295 20.3995H16.1398C17.7773 20.3995 18.9961 20.8237 19.7622 21.6605C20.5324 22.5017 20.7702 23.6776 20.469 25.1554C20.3465 25.7574 20.1357 26.3166 19.8426 26.8172C19.5491 27.3183 19.1612 27.7821 18.6895 28.1957C18.1249 28.6999 17.4859 29.0655 16.792 29.2806C16.109 29.4929 15.2319 29.6005 14.185 29.6005H12.0753L11.4728 32.558C11.4494 32.6728 11.3441 32.7557 11.2216 32.7557H8.51196Z" fill="black"/>
<path d="M13.6794 23.0051H15.1138C16.2591 23.0051 16.657 23.2449 16.7921 23.3878C17.0164 23.6251 17.0587 24.1253 16.9146 24.8345C16.7526 25.6284 16.4524 26.1912 16.0221 26.5073C15.5816 26.8309 14.8655 26.9949 13.8937 26.9949H12.8667L13.6794 23.0051ZM16.1398 20.1552H10.9295C10.6844 20.1552 10.4737 20.321 10.4269 20.5505L8.00942 32.4183C7.98023 32.5615 8.01966 32.7096 8.11686 32.8222C8.21415 32.9349 8.35905 33 8.51198 33H11.2215C11.4667 33 11.6774 32.8342 11.7241 32.6047L12.2863 29.8448H14.185C15.2588 29.8448 16.1627 29.7331 16.8714 29.5128C17.6003 29.2869 18.2709 28.9038 18.8644 28.3742C19.3553 27.9433 19.7596 27.4596 20.066 26.9364C20.3725 26.4131 20.5926 25.8296 20.7204 25.2019C21.0374 23.6464 20.7799 22.4008 19.955 21.4999C19.1381 20.6076 17.8544 20.1552 16.1398 20.1552ZM12.2456 27.4835H13.8937C14.9861 27.4835 15.7998 27.2871 16.3345 26.8944C16.8692 26.5016 17.2298 25.8461 17.4173 24.9275C17.5966 24.0455 17.5149 23.423 17.1722 23.0605C16.8292 22.6979 16.1431 22.5165 15.1138 22.5165H13.2573L12.2456 27.4835ZM16.1398 20.6438C17.7072 20.6438 18.8507 21.0362 19.5694 21.8213C20.2881 22.6063 20.5045 23.702 20.2177 25.1088C20.0997 25.6883 19.9001 26.2181 19.6191 26.6981C19.3377 27.1784 18.9703 27.6176 18.5163 28.0159C17.9753 28.499 17.3742 28.8433 16.7129 29.0483C16.0515 29.2539 15.2091 29.3562 14.185 29.3562H11.8642L11.2215 32.5115H8.51198L10.9295 20.6438H16.1398Z" fill="white"/>
<path d="M26.6816 29.6006C26.6051 29.6006 26.5327 29.568 26.4841 29.5117C26.4354 29.4554 26.4157 29.3814 26.4303 29.3097L27.4996 24.0587C27.6014 23.5593 27.5763 23.2009 27.4291 23.0495C27.339 22.9569 27.0683 22.8016 26.2679 22.8016H24.3305L22.986 29.4029C22.9626 29.5177 22.8572 29.6006 22.7347 29.6006H20.0465C19.97 29.6006 19.8976 29.568 19.8489 29.5117C19.8003 29.4554 19.7806 29.3813 19.7952 29.3097L22.2127 17.442C22.236 17.3272 22.3414 17.2444 22.464 17.2444H25.1521C25.2286 17.2444 25.3011 17.2769 25.3497 17.3332C25.3983 17.3895 25.4181 17.4635 25.4035 17.5352L24.8201 20.3996H26.9042C28.492 20.3996 29.5686 20.6666 30.1957 21.2161C30.8349 21.7766 31.0343 22.6729 30.7885 23.8802L29.6638 29.4029C29.6404 29.5177 29.5351 29.6006 29.4124 29.6006H26.6816Z" fill="black"/>
<path d="M25.1522 17.0001H22.464C22.2188 17.0001 22.0081 17.1658 21.9613 17.3954L19.5439 29.2631C19.5147 29.4064 19.5541 29.5545 19.6514 29.6671C19.7487 29.7797 19.8936 29.8448 20.0465 29.8448H22.7347C22.9798 29.8448 23.1906 29.6791 23.2373 29.4495L24.5416 23.0459H26.2679C27.0669 23.0459 27.2346 23.2087 27.2413 23.2157C27.2898 23.2655 27.3535 23.4959 27.2483 24.0121L26.1789 29.2631C26.1498 29.4064 26.1892 29.5545 26.2865 29.6671C26.3838 29.7797 26.5287 29.8448 26.6816 29.8448H29.4124C29.6575 29.8448 29.8683 29.6791 29.9151 29.4495L31.0398 23.9269C31.3037 22.6305 31.0779 21.6581 30.3689 21.0363C29.6923 20.4434 28.559 20.1553 26.9042 20.1553H25.1306L25.6548 17.5818C25.6839 17.4386 25.6446 17.2904 25.5473 17.1779C25.45 17.0653 25.3051 17.0001 25.1522 17.0001ZM25.1522 17.4886L24.5095 20.6438H26.9042C28.4111 20.6438 29.4504 20.8948 30.0224 21.396C30.5945 21.8976 30.7658 22.7103 30.5372 23.8337L29.4124 29.3563H26.6816L27.751 24.1054C27.8727 23.508 27.8279 23.1006 27.6166 22.8833C27.4053 22.6661 26.9556 22.5573 26.2679 22.5573H24.1194L22.7347 29.3563H20.0465L22.464 17.4886H25.1522Z" fill="white"/>
<path d="M35.042 27.2392C36.0716 27.2392 36.8402 27.058 37.3266 26.7009C37.8077 26.3475 38.14 25.7351 38.3143 24.8808C38.4767 24.0824 38.4148 23.5248 38.1304 23.224C37.8396 22.9167 37.211 22.7608 36.262 22.7608H34.6166L33.7044 27.2392H35.042ZM29.6603 32.7557C29.5839 32.7557 29.5114 32.7232 29.4628 32.6668C29.4142 32.6106 29.3944 32.5365 29.409 32.4649L31.8265 20.5971C31.8499 20.4824 31.9552 20.3995 32.0779 20.3995H37.2881C38.9256 20.3995 40.1444 20.8237 40.9105 21.6605C41.6807 22.5017 41.9185 23.6775 41.6174 25.1554C41.4947 25.7574 41.284 26.3166 40.9908 26.8172C40.6974 27.3183 40.3095 27.7821 39.8378 28.1957C39.2732 28.6999 38.6342 29.0655 37.9402 29.2806C37.2573 29.4929 36.3802 29.6005 35.3333 29.6005H33.2235L32.6212 32.558C32.5978 32.6728 32.4925 32.7557 32.3698 32.7557H29.6603Z" fill="black"/>
<path d="M34.8277 23.0051H36.2621C37.4074 23.0051 37.8052 23.2449 37.9404 23.3878C38.1648 23.6251 38.2071 24.1253 38.0629 24.8344C37.9009 25.6284 37.6006 26.1912 37.1704 26.5073C36.7299 26.8309 36.0137 26.9949 35.042 26.9949H34.0151L34.8277 23.0051ZM37.2881 20.1552H32.0778C31.8327 20.1552 31.622 20.321 31.5753 20.5505L29.1578 32.4183C29.1286 32.5615 29.168 32.7096 29.2652 32.8222C29.3625 32.9349 29.5074 33 29.6603 33H32.3698C32.6149 33 32.8257 32.8342 32.8725 32.6047L33.4346 29.8448H35.3333C36.4071 29.8448 37.311 29.7331 38.0197 29.5128C38.7486 29.2869 39.4193 28.9037 40.0129 28.374C40.5037 27.9432 40.9079 27.4596 41.2143 26.9364C41.5207 26.4131 41.7409 25.8296 41.8687 25.2019C42.1857 23.6463 41.9281 22.4007 41.1032 21.4998C40.2864 20.6076 39.0028 20.1552 37.2881 20.1552ZM33.3939 27.4835H35.042C36.1344 27.4835 36.9481 27.2871 37.4827 26.8944C38.0176 26.5016 38.3781 25.8461 38.5655 24.9275C38.7449 24.0455 38.6632 23.423 38.3205 23.0605C37.9775 22.6979 37.2914 22.5165 36.2621 22.5165H34.4056L33.3939 27.4835ZM37.2881 20.6438C38.8555 20.6438 39.999 21.0362 40.7177 21.8213C41.4364 22.6063 41.6527 23.702 41.366 25.1088C41.248 25.6883 41.0484 26.2181 40.7674 26.6981C40.486 27.1784 40.1186 27.6176 39.6646 28.0159C39.1236 28.499 38.5225 28.8433 37.8611 29.0483C37.1998 29.2539 36.3574 29.3562 35.3333 29.3562H33.0124L32.3698 32.5115H29.6603L32.0778 20.6438H37.2881Z" fill="white"/>
</svg>
