<svg width="50" height="50" viewBox="0 0 50 50" fill="none" xmlns="http://www.w3.org/2000/svg">
<path d="M45 0H5C2.23858 0 0 2.23858 0 5V45C0 47.7614 2.23858 50 5 50H45C47.7614 50 50 47.7614 50 45V5C50 2.23858 47.7614 0 45 0Z" fill="#2B5B84"/>
<path d="M21.5754 9.0001C19.0473 9.0001 17.0002 11.0472 17.0002 13.5753V16.2629H23.863C24.4871 16.2629 25.0006 17.1765 25.0006 17.8005H13.5752C11.0471 17.8005 9 19.8476 9 22.3757V28.4258C9 30.9539 11.0471 33.001 13.5752 33.001H15.4628V28.7134C15.4628 26.1853 17.4974 24.1382 20.0255 24.1382H28.4258C30.9539 24.1382 33.001 22.1035 33.001 19.5754V13.5752C33.001 11.0471 30.9539 9 28.4258 9L21.5754 9.0001ZM20.4254 11.5752C21.0654 11.5752 21.5754 11.7687 21.5754 12.7128C21.5754 13.6568 21.0654 14.1378 20.4254 14.1378C19.8014 14.1378 19.2878 13.6568 19.2878 12.7128C19.2878 11.7687 19.8014 11.5752 20.4254 11.5752Z" fill="#3C78AA"/>
<path d="M34.5347 16.999V21.2867C34.5347 23.8148 32.5032 25.8619 29.9751 25.8619H21.5748C19.0467 25.8619 16.9996 27.8933 16.9996 30.4214V36.4217C16.9994 37.0227 17.1175 37.6179 17.3473 38.1733C17.5771 38.7287 17.914 39.2334 18.3389 39.6585C18.7637 40.0836 19.2682 40.4209 19.8234 40.6511C20.3787 40.8813 20.9738 40.9998 21.5748 40.9999H28.425C29.0261 40.9998 29.6212 40.8813 30.1764 40.6511C30.7317 40.4209 31.2361 40.0836 31.661 39.6585C32.0858 39.2334 32.4228 38.7287 32.6526 38.1733C32.8824 37.6179 33.0005 37.0227 33.0002 36.4217V33.734H26.1344C25.5103 33.734 25 32.8236 25 32.1996H36.4253C37.0264 32.1995 37.6215 32.081 38.1767 31.8508C38.732 31.6206 39.2364 31.2834 39.6613 30.8582C40.0862 30.4331 40.4231 29.9284 40.6529 29.373C40.8827 28.8176 41.0008 28.2224 41.0005 27.6214V21.5743C41.0003 20.3609 40.5182 19.1973 39.6602 18.3394C38.8023 17.4814 37.6387 16.9993 36.4253 16.9991L34.5347 16.999ZM19.1122 24.2212L19.106 24.2274C19.1251 24.2236 19.1461 24.2249 19.1653 24.2212H19.1122ZM29.5751 35.8623C30.1992 35.8623 30.7127 36.3433 30.7127 37.2873C30.7122 37.5886 30.5922 37.8774 30.3788 38.0901C30.1655 38.3028 29.8764 38.4221 29.5751 38.4217C28.9351 38.4217 28.4251 38.2314 28.4251 37.2873C28.4251 36.3433 28.9351 35.8623 29.5751 35.8623Z" fill="#FDD835"/>
</svg>
