<svg width="50" height="50" viewBox="0 0 50 50" fill="none" xmlns="http://www.w3.org/2000/svg">
<path d="M45 0H5C2.23858 0 0 2.23858 0 5V45C0 47.7614 2.23858 50 5 50H45C47.7614 50 50 47.7614 50 45V5C50 2.23858 47.7614 0 45 0Z" fill="#4479A1"/>
<path d="M16.6933 34.0421H15.4586C15.4149 31.9323 15.2947 29.9488 15.0981 28.0901H15.0871L13.2072 34.0421H12.2671L10.3984 28.0901H10.3877C10.2491 29.8746 10.1617 31.8586 10.1255 34.0421H9C9.07253 31.3869 9.25482 28.8976 9.54615 26.574H11.0765L12.8576 32.0615H12.8686L14.6607 26.574H16.125C16.4457 29.2956 16.6351 31.7852 16.6933 34.0421ZM22.0482 28.5321C21.5455 31.2939 20.8822 33.3006 20.059 34.5532C19.4177 35.5174 18.715 36 17.9498 36C17.7458 36 17.4941 35.9377 17.1958 35.814V35.1481C17.3416 35.1694 17.5127 35.1814 17.7093 35.1814C18.0667 35.1814 18.354 35.0819 18.573 34.8824C18.835 34.6394 18.966 34.3663 18.966 34.0641C18.966 33.8568 18.8639 33.4332 18.6601 32.7917L17.3051 28.5319H18.5181L19.4907 31.7178C19.7092 32.4412 19.8004 32.9462 19.7639 33.2339C20.2957 31.796 20.6672 30.2282 20.8788 28.5316H22.0482V28.5321Z" fill="white"/>
<path d="M38.484 34.0421H34.9766V26.574H36.1565V33.1228H38.484V34.0421ZM34.0585 34.2226L32.7023 33.545C32.8226 33.4451 32.9376 33.3368 33.0411 33.2115C33.6176 32.526 33.9051 31.5123 33.9051 30.1695C33.9051 27.6988 32.9473 26.4629 31.0312 26.4629C30.0916 26.4629 29.3586 26.7764 28.8344 27.4037C28.2584 28.0897 27.9709 29.0998 27.9709 30.4352C27.9709 31.748 28.2257 32.711 28.7356 33.3219C29.2021 33.8752 29.9052 34.1523 30.8455 34.1523C31.1963 34.1523 31.5181 34.1088 31.8114 34.0211L33.577 35.0617L34.0585 34.2226ZM29.6652 32.5477C29.3665 32.0613 29.2171 31.2801 29.2171 30.2031C29.2171 28.3227 29.7814 27.3815 30.9111 27.3815C31.5017 27.3815 31.9345 27.6066 32.2113 28.0558C32.5095 28.543 32.6596 29.3172 32.6596 30.3792C32.6596 32.275 32.0948 33.2231 30.9658 33.2231C30.375 33.2233 29.9422 32.9989 29.6652 32.5477ZM27.4567 31.9721C27.4567 32.6055 27.2272 33.125 26.7686 33.532C26.3096 33.9373 25.694 34.1404 24.9226 34.1404C24.2011 34.1404 23.5015 33.9071 22.8244 33.4429L23.1415 32.8016C23.7241 33.097 24.2516 33.2438 24.7253 33.2438C25.1698 33.2438 25.5172 33.1441 25.7691 32.9463C26.0208 32.7477 26.1709 32.4692 26.1709 32.1171C26.1709 31.6734 25.8653 31.2941 25.3046 30.9765C24.7875 30.6891 23.7535 30.0881 23.7535 30.0881C23.193 29.6746 22.9124 29.2307 22.9124 28.4993C22.9124 27.894 23.1216 27.4054 23.5404 27.0336C23.9596 26.6605 24.5005 26.4745 25.1636 26.4745C25.8483 26.4745 26.4708 26.6602 27.0315 27.0278L26.7471 27.6694C26.2676 27.4631 25.7942 27.36 25.3272 27.36C24.9491 27.36 24.657 27.452 24.454 27.6368C24.2493 27.8208 24.123 28.0563 24.123 28.3452C24.123 28.7867 24.4351 29.1708 25.0111 29.4947C25.5351 29.7826 26.5949 30.3939 26.5949 30.3939C27.1697 30.8067 27.4567 31.2466 27.4567 31.9721Z" fill="#F8981D"/>
<path d="M39.9652 24.0727C39.2518 24.0543 38.6994 24.127 38.2358 24.3255C38.102 24.3797 37.8892 24.3797 37.8706 24.5509C37.9428 24.6234 37.9512 24.7403 38.014 24.8403C38.1208 25.0207 38.3072 25.2634 38.4773 25.39C38.6641 25.5349 38.8517 25.6784 39.0483 25.8047C39.395 26.0219 39.7879 26.1482 40.1258 26.3646C40.3226 26.4905 40.5183 26.6533 40.7154 26.7888C40.8122 26.861 40.8743 26.9781 41 27.0233V26.9958C40.937 26.9146 40.9191 26.7972 40.8573 26.7069L40.5896 26.4455C40.331 26.0939 40.0096 25.7869 39.6629 25.5347C39.3775 25.3357 38.7534 25.0651 38.6376 24.7323L38.6195 24.7139C38.8156 24.6953 39.0483 24.6234 39.2346 24.5681C39.5379 24.4871 39.8144 24.5055 40.1255 24.4246C40.2687 24.3883 40.4107 24.3429 40.5543 24.2983V24.2169C40.393 24.0543 40.278 23.8384 40.1084 23.6847C39.6545 23.2879 39.1544 22.8997 38.6376 22.5749C38.3609 22.394 38.0049 22.2775 37.7102 22.1237C37.604 22.0693 37.4251 22.0425 37.3626 21.9522C37.2027 21.7536 37.1128 21.4923 36.9968 21.2573C36.7391 20.7614 36.4888 20.2112 36.2665 19.6868C36.1056 19.3351 36.0078 18.9839 35.8117 18.6586C34.8931 17.1248 33.8955 16.1958 32.3623 15.284C32.0328 15.0942 31.6408 15.0133 31.222 14.9137L30.5532 14.878C30.4106 14.8147 30.2676 14.643 30.1431 14.5618C29.6344 14.2372 28.3247 13.5336 27.9506 14.4626C27.7096 15.0497 28.3071 15.627 28.5123 15.9248C28.6638 16.1316 28.8601 16.3668 28.9661 16.6016C29.0288 16.755 29.0465 16.9178 29.1092 17.0799C29.2519 17.477 29.3853 17.9187 29.5728 18.2893C29.6707 18.4781 29.7773 18.6767 29.9023 18.8477C29.9739 18.9477 30.0985 18.9919 30.1257 19.1549C30.0014 19.3346 29.9916 19.6059 29.9202 19.8315C29.5996 20.851 29.7248 22.114 30.1794 22.8633C30.3216 23.0889 30.6608 23.5855 31.1147 23.3951C31.5165 23.2328 31.4275 22.7186 31.5429 22.2676C31.5694 22.1587 31.552 22.0872 31.6055 22.0157V22.0333C31.7298 22.2858 31.8553 22.529 31.9705 22.7821C32.247 23.2239 32.7285 23.6843 33.1296 23.9903C33.3432 24.1536 33.5123 24.4328 33.7798 24.5325V24.5055H33.7621C33.708 24.4246 33.6288 24.3883 33.5577 24.3255C33.3968 24.163 33.2189 23.9644 33.0941 23.7843C32.7204 23.2787 32.3897 22.7191 32.0962 22.1416C31.9526 21.8614 31.8288 21.5551 31.7131 21.2754C31.6591 21.1674 31.6591 21.0046 31.5697 20.9503C31.4356 21.1486 31.2402 21.3203 31.1423 21.5633C30.9727 21.9519 30.955 22.4299 30.892 22.927L30.857 22.9444C30.573 22.8722 30.4743 22.5749 30.3664 22.3225C30.0994 21.6814 30.0546 20.6525 30.2862 19.9129C30.3483 19.7237 30.6167 19.1281 30.5096 18.9479C30.4559 18.7752 30.2774 18.6769 30.1796 18.5409C30.0646 18.3699 29.9386 18.1535 29.8584 17.9637C29.6447 17.4586 29.537 16.899 29.3068 16.3941C29.1992 16.1589 29.0124 15.9154 28.8611 15.6987C28.6912 15.4553 28.5044 15.2838 28.3701 14.9951C28.3257 14.8959 28.2634 14.7336 28.3348 14.6256C28.3522 14.5531 28.3884 14.5261 28.4595 14.508C28.575 14.4092 28.905 14.5348 29.0207 14.5891C29.3512 14.7244 29.6275 14.8507 29.9033 15.0401C30.0281 15.1306 30.1619 15.3021 30.322 15.3473H30.5096C30.7942 15.4101 31.1151 15.3647 31.3831 15.4463C31.8553 15.6 32.2831 15.8253 32.6667 16.0685C33.8342 16.818 34.7969 17.883 35.4469 19.1549C35.5535 19.3622 35.5989 19.552 35.6962 19.7682C35.884 20.2107 36.1161 20.6619 36.3025 21.095C36.4898 21.5189 36.6683 21.9517 36.9357 22.3039C37.0691 22.4932 37.605 22.5925 37.8453 22.6918C38.023 22.7727 38.2998 22.8447 38.4601 22.9439C38.7634 23.1331 39.0655 23.3502 39.3506 23.5582C39.4925 23.6664 39.9387 23.892 39.9652 24.0727ZM30.8732 16.2313C30.7501 16.23 30.6275 16.2453 30.5084 16.2768V16.2949H30.5256C30.5974 16.4391 30.7222 16.5391 30.8112 16.6649C30.883 16.8096 30.9453 16.9531 31.0156 17.0975L31.0328 17.0796C31.1586 16.9895 31.2211 16.8451 31.2211 16.6284C31.1669 16.5647 31.1586 16.5023 31.1135 16.4391C31.061 16.3487 30.9453 16.3038 30.8732 16.2313Z" fill="white"/>
<path d="M40.8141 34.0409H40.9988V33.126H40.7218L40.4958 33.7504L40.2503 33.126H39.9836V34.0409H40.158V33.3448H40.1678L40.425 34.0409H40.5579L40.8141 33.3448V34.0409ZM39.3265 34.0409H39.5219V33.281H39.7777V33.1257H39.06V33.281H39.326L39.3265 34.0409Z" fill="#F8981D"/>
</svg>
